<?xml version="1.0" encoding="utf-8"?>
<!-- Generator: Adobe Illustrator 26.4.1, SVG Export Plug-In . SVG Version: 6.00 Build 0)  -->
<svg version="1.1" id="Layer_1" xmlns="http://www.w3.org/2000/svg" xmlns:xlink="http://www.w3.org/1999/xlink" x="0px" y="0px"
	 viewBox="0 0 612 792" style="enable-background:new 0 0 612 792;" xml:space="preserve">
<style type="text/css">
	.st0{fill:#61A2BD;}
	.st1{fill:#F0C835;}
	.st2{fill:#FFFFFF;}
</style>
<g>
	<g>
		<path class="st0" d="M421.6,457.7v-3.5c0-10.3,3.3-17.2,11.4-27.5c4.6-6,6.8-10.4,6.8-16.6c0-5.8-1.8-8.6-6.2-8.6
			c-5.4,0-6.7,4.7-7,12.1h-22c0.2-15.7,7.7-29.5,30.3-29.4c22.4,0.1,29,12.7,29,26.7c0,11.4-3.2,16.8-11.3,27.5
			c-5.2,7.1-6.8,11.7-6.8,17.4v1.9H421.6z M421.6,492.6v-27.5h24.2v27.5H421.6z"/>
	</g>
	<g>
		<path class="st1" d="M159.9,358.2c0.1,3.5,1.4,6.9,5.5,6.9c3.2,0,4.7-1.8,4.7-4.6c0-3.2-1.5-4.9-7.6-7.1
			c-13.2-4.8-16.9-9.3-16.9-18.3c0-8.5,5.2-17,19.5-17c16.6,0,19.7,10.6,19.7,17.8h-14.9c0-2.6-0.4-6.5-4.7-6.5c-2.6,0-4,1.6-4,4.1
			c0,3,1.7,4.4,8.2,6.8c12.1,4.4,16.7,9.2,16.7,18.3c0,11.4-6.6,18.3-20.9,18.3c-15.5,0-20.6-9-20.7-18.6H159.9z"/>
		<path class="st1" d="M235.8,358.1c0,9.3,0,14.9,0.1,17.8h-15.6c-0.4-1.8-0.5-4.2-0.7-5.7c-2.8,5-6.8,6.7-12.6,6.7
			c-8.4,0-13.9-4.2-13.9-16.8v-40.8h16.5v37.8c0,4.5,0.9,6.7,4.4,6.7c3.7,0,5.4-2.1,5.4-8.6v-36h16.5V358.1z"/>
		<path class="st1" d="M244.5,338.4c0-9.6,0-15.4-0.1-19.3h15.8c0.1,1.3,0.4,4.2,0.4,9.2c1.9-6.2,6.9-10.2,14.4-10.1V336
			c-9.7-0.2-13.9,2.3-13.9,12.3v27.5h-16.5V338.4z"/>
		<path class="st1" d="M296.3,319.1c2.4,13.6,5.1,31,6.2,40.6h0.4c1-9.5,4-24.9,6.7-40.6H326l-14.3,56.7h-19.3l-13.8-56.7H296.3z"/>
		<path class="st1" d="M331,319.1h16.5v56.7H331V319.1z M331,299.6h16.5v13.4H331V299.6z"/>
		<path class="st1" d="M370.3,319.1c2.4,13.6,5.1,31,6.2,40.6h0.4c1-9.5,4-24.9,6.7-40.6H400l-14.3,56.7h-19.3l-13.8-56.7H370.3z"/>
		<path class="st1" d="M418.9,351.4c0,7.4,0.7,13,5.9,13c4.6,0,5.3-3.8,5.5-6.4H446c-0.4,3.8-2.1,18.8-21.6,18.8
			c-18.9,0-21.9-14.4-21.9-29.8c0-19.1,7.7-28.9,22.3-28.9c16.8,0,21.6,11.4,21.6,27c0,1.9-0.1,5-0.1,6.2H418.9z M430.1,341
			c0-5.5-0.2-10.6-5.4-10.6c-5.2,0-5.7,5.4-5.7,10.6H430.1z"/>
	</g>
	<g>
		<g>
			<path class="st0" d="M141.3,391.9h2.6v-5h6.1v5h2.9v4.9H150V407c0,1.1,0.3,1.7,1.6,1.7c0.4,0,0.6,0,1-0.1v4.5
				c-1.1,0.4-2.6,0.4-3.5,0.4c-4,0-5.4-1.5-5.4-5.5v-11.3h-2.5V391.9z"/>
			<path class="st0" d="M161.6,384.5v9.2c0.8-1.3,2.3-2.2,4.7-2.2c3.7,0,5.3,2.4,5.3,6.6v15.2h-6.2v-14.2c0-1.6-0.3-2.6-1.8-2.6
				c-1.6,0-1.9,1.2-1.9,3.3v13.5h-6.2v-28.8H161.6z"/>
			<path class="st0" d="M180.7,404.1c0,2.8,0.3,4.9,2.2,4.9c1.7,0,2-1.4,2.1-2.4h5.9c-0.2,1.4-0.8,7.1-8.1,7.1
				c-7.1,0-8.3-5.4-8.3-11.2c0-7.2,2.9-10.9,8.4-10.9c6.3,0,8.1,4.3,8.1,10.2c0,0.7,0,1.9-0.1,2.3H180.7z M184.9,400.1
				c0-2.1-0.1-4-2-4c-2,0-2.1,2-2.1,4H184.9z"/>
		</g>
	</g>
	<g>
		<g>
			<path class="st0" d="M164.6,306.1l-4.6-27.5h6.7c0.6,5.1,1.5,14,1.8,18.9h0.2c0.8-5.4,2-13.1,2.9-18.9h5.3c0.8,5,2,13.2,2.7,18.7
				h0.2c0.4-5.4,1.5-14.5,1.9-18.7h6.2l-4.9,27.5h-6.4c-0.8-4.8-2-10.9-2.6-16.4h-0.2c-0.7,5.4-2,11.7-2.8,16.4H164.6z"/>
			<path class="st0" d="M205.2,295.1c0,8.5-3.3,11.3-8.6,11.3c-5,0-8.4-2.8-8.4-11.2c0-8.1,3.7-11,8.6-11
				C201.9,284.3,205.2,287.4,205.2,295.1z M194.6,295.2c0,4.6,0.4,6.5,2.2,6.5c1.7,0,2.1-1.9,2.1-6.4c0-4.7-0.5-6.1-2.1-6.1
				C195.1,289.1,194.6,290.6,194.6,295.2z"/>
			<path class="st0" d="M224.2,299.4c0,3.5,0,5.6,0,6.7h-5.9c-0.1-0.7-0.2-1.6-0.2-2.2c-1.1,1.9-2.6,2.5-4.7,2.5
				c-3.2,0-5.3-1.6-5.3-6.4v-15.4h6.2v14.3c0,1.7,0.3,2.5,1.7,2.5c1.4,0,2-0.8,2-3.2v-13.6h6.2V299.4z"/>
			<path class="st0" d="M227.9,306.1v-28.8h6.2v28.8H227.9z"/>
			<path class="st0" d="M253.9,277.3v22.4c0,2.9,0,5.3,0.1,6.4h-6c-0.1-0.6-0.2-1.5-0.2-2.1c-0.8,1.6-2.2,2.5-4.6,2.5
				c-4.1,0-6.1-3.4-6.1-11.3c0-7.1,2.3-10.9,6.9-10.9c2.1,0,3.3,0.8,3.7,1.5v-8.6H253.9z M243.4,295.3c0,4.8,0.6,6.3,2.1,6.3
				c1.8,0,2.2-1.4,2.2-6.5c0-4.6-0.2-5.9-2.1-5.9C244.2,289.2,243.4,290.3,243.4,295.3z"/>
			<path class="st0" d="M269.3,284.7c1,5.3,2.2,11.4,2.4,14.1h0.1c0.4-3.2,1.4-8.7,2.4-14.1h6.3l-5.6,21.2c-1.8,6.7-3.6,7.8-7.9,7.8
				c-0.9,0-1.8-0.1-2.6-0.2v-4.9c0.4,0,1.1,0.1,1.5,0.1c1.7,0,2.3-0.6,2.7-2.4l-6.2-21.6H269.3z"/>
			<path class="st0" d="M298.4,295.1c0,8.5-3.3,11.3-8.6,11.3c-5,0-8.4-2.8-8.4-11.2c0-8.1,3.7-11,8.6-11
				C295.1,284.3,298.4,287.4,298.4,295.1z M287.8,295.2c0,4.6,0.4,6.5,2.2,6.5c1.7,0,2.1-1.9,2.1-6.4c0-4.7-0.5-6.1-2.1-6.1
				C288.3,289.1,287.8,290.6,287.8,295.2z"/>
			<path class="st0" d="M317.4,299.4c0,3.5,0,5.6,0,6.7h-5.9c-0.1-0.7-0.2-1.6-0.2-2.2c-1.1,1.9-2.6,2.5-4.7,2.5
				c-3.2,0-5.3-1.6-5.3-6.4v-15.4h6.2v14.3c0,1.7,0.3,2.5,1.7,2.5c1.4,0,2-0.8,2-3.2v-13.6h6.2V299.4z"/>
		</g>
	</g>
	<g>
		<path class="st2" d="M207.9,399.3h-10.4v-9.9h32.9v9.9H220v42.9h-12.1V399.3z"/>
		<path class="st2" d="M234.1,401H246v41.1h-11.9V401z M234.1,386.8h11.9v9.7h-11.9V386.8z"/>
		<path class="st2" d="M250.4,401h4.9v-9.7h11.8v9.7h5.7v9.4h-5.7v19.7c0,2.2,0.5,3.3,3.1,3.3c0.7,0,1.2,0,1.9-0.1v8.6
			c-2.1,0.8-5,0.9-6.7,0.9c-7.7,0-10.3-2.9-10.3-10.5v-21.7h-4.8V401z"/>
		<path class="st2" d="M306.9,432c0,2.8,0.2,8.1,0.3,10.1h-10.8c-0.2-0.9-0.4-2.5-0.5-3.6c-2,2.8-4.9,4.3-9.2,4.3
			c-7.3,0-10.9-5.6-10.9-12.7c0-9,6.1-13.5,16-13.5c1.2,0,2.4,0,3.3,0.1v-4c0-2.2-0.3-4.1-3.2-4.1c-2.7,0-3.2,1.7-3.3,4.7h-11.2
			c0.2-7.3,3.7-12.9,15-12.9c9.6,0,14.5,3.8,14.5,12.3V432z M295.4,424.3c-0.7-0.1-1.4-0.1-2.3-0.1c-4.1,0-5.4,2.2-5.4,5
			c0,2.4,1,4.4,3.6,4.4c3.5,0,4.1-2.7,4.1-7.3V424.3z"/>
		<path class="st2" d="M314,413.9c0-8.5,0-10.8-0.1-12.9h11.5c0.2,0.9,0.3,2.6,0.3,3.8c1.3-2,4-4.5,8.9-4.5c7,0,10.4,4.4,10.4,12.3
			v29.6h-11.9v-27.3c0-3.2-0.6-5-3.4-5c-2.6,0-3.8,1.4-3.8,5.9v26.4H314V413.9z"/>
		<path class="st2" d="M352.1,401H364v41.1h-11.9V401z M352.1,386.8h11.9v9.7h-11.9V386.8z"/>
		<path class="st2" d="M383,418c2.5-5.6,5.3-11.8,7.9-17h12.9c-3,5.3-5.9,10.1-9,15.1c0,0,9.4,26,9.4,26h-13.4l-4.3-16.7
			c-1,1.6-2.7,4.3-3.5,5.6v11.1h-11.9v-55.3H383V418z"/>
	</g>
</g>
</svg>
